# xmcd
#
# Track frame offsets: 
#        150
#        22805
#        48720
#        49390
#        66445
#        85485
#        113355
#        140635
#        167545
#        180660
#
# Disc length: 2429 seconds
#
# Revision: 0
# Processed by: cddbd v1.4PL0 Copyright (c) Steve Scherf et al.
# Submitted via: ExactAudioCopy v0.95a3
#
DISCID=87097b0a
DTITLE=Big Harmonica Bob - Nothin' But The Blues
DYEAR=2003
DGENRE=Blues
TTITLE0=Beach Fest Boogie
TTITLE1=Stormy Monday
TTITLE2=08 Seconds
TTITLE3=Scratch My Back
TTITLE4=My Babe
TTITLE5=It Ain't Necessarily So
TTITLE6=Can't Find My Baby
TTITLE7=I'm Your Professor Baby
TTITLE8=Harp Battle Mambo
TTITLE9=11 Seconds 'til The End
EXTD=
EXTT0=
EXTT1=
EXTT2=
EXTT3=
EXTT4=
EXTT5=
EXTT6=
EXTT7=
EXTT8=
EXTT9=
PLAYORDER=
